<svg width="32" height="32" viewBox="0 0 32 32" fill="none" xmlns="http://www.w3.org/2000/svg">
<path d="M0 6C0 2.68629 2.68629 0 6 0H26C29.3137 0 32 2.68629 32 6V26C32 29.3137 29.3137 32 26 32H6C2.68629 32 0 29.3137 0 26V6Z" fill="white"/>
<path d="M4.33324 12.8309C4.03149 12.5351 3.72847 12.241 3.42884 11.943C3.12455 11.6404 3.12412 11.4332 3.42672 11.128C5.32664 9.21228 7.22699 7.29659 9.12818 5.38218C9.4774 5.03051 9.65964 5.03221 10.0152 5.39071C11.3773 6.7629 12.7403 8.13423 14.096 9.51281C14.2287 9.64751 14.3427 9.67394 14.5224 9.63259C17.2941 9.00085 20.0675 8.37721 22.84 7.75101C23.4113 7.62184 23.9817 7.48927 24.5522 7.35798C25.0027 7.25439 25.1807 7.35926 25.282 7.81282C25.7066 9.7089 26.1258 11.6063 26.5542 13.5015C26.5737 13.5884 26.6526 13.6899 26.7314 13.7312C27.2946 14.0262 27.8646 14.3076 28.433 14.5923C28.7644 14.7586 28.8335 14.9052 28.786 15.2761C28.6038 16.6909 28.427 18.1061 28.2473 19.5209C28.071 20.9076 27.8922 22.2943 27.7167 23.681C27.6099 24.5259 27.4951 25.3699 27.4048 26.2165C27.3192 27.0183 26.8395 27.5025 26.0308 27.5115C24.7107 27.526 23.3901 27.517 22.0695 27.5175C19.6403 27.5183 17.2114 27.5187 14.7822 27.5187C12.7627 27.5187 10.7429 27.5183 8.72345 27.5175C7.80548 27.5175 6.88752 27.5119 5.96956 27.5175C5.28808 27.5213 4.73798 27.0724 4.64262 26.381C4.5443 25.6713 4.47522 24.9572 4.39639 24.2449C4.25357 22.9542 4.11201 21.663 3.97131 20.3718C3.81196 18.9109 3.656 17.4501 3.49538 15.9897C3.40553 15.1712 3.31441 14.3532 3.21482 13.536C3.16227 13.1063 3.32501 12.9009 3.75305 12.8932C3.93571 12.8898 4.11837 12.8928 4.30103 12.8928C4.31163 12.8723 4.32222 12.8514 4.33324 12.8309ZM4.87444 20.6374C4.87783 20.7085 4.87783 20.7499 4.88249 20.7912C4.95751 21.4758 5.03379 22.16 5.10838 22.8446C5.22832 23.9453 5.34317 25.0463 5.46947 26.1461C5.51439 26.537 5.65255 26.6513 6.03821 26.6517C8.4039 26.653 10.7696 26.6517 13.1348 26.6517C15.9243 26.6517 18.7134 26.6513 21.5029 26.6513C22.7599 26.6513 24.0169 26.6534 25.2739 26.6513C25.7007 26.6504 25.8634 26.4599 25.8113 26.0374C25.7905 25.8682 25.7719 25.699 25.7537 25.5297C25.5905 24.0412 25.4273 22.5522 25.2637 21.0636C25.2485 20.9247 25.2294 20.7866 25.2108 20.6374C25.1112 20.6374 25.034 20.6374 24.9569 20.6374C23.1278 20.6374 21.299 20.6374 19.4699 20.6374C19.0393 20.6374 18.6083 20.6438 18.1777 20.6344C17.8179 20.6267 17.6051 20.2963 17.7645 20.0065C17.8654 19.8227 18.0323 19.778 18.2311 19.778C20.4345 19.781 22.6378 19.7797 24.8408 19.7797C24.9239 19.7797 25.0065 19.7797 25.1002 19.7797C25.1002 19.6876 25.1065 19.6181 25.0993 19.5499C24.8946 17.6875 24.6869 15.8255 24.4861 13.9631C24.4683 13.7986 24.4064 13.7564 24.2462 13.7568C21.2168 13.7619 18.1875 13.7611 15.1581 13.7607C11.5994 13.7602 8.04027 13.7585 4.48157 13.7572C4.36503 13.7572 4.24848 13.7572 4.10693 13.7572C4.3307 15.7863 4.54938 17.7724 4.77061 19.7801C4.87487 19.7801 4.95793 19.7801 5.041 19.7801C7.09603 19.7797 9.15107 19.7788 11.2061 19.7793C11.5312 19.7793 11.7248 19.9395 11.7299 20.2055C11.735 20.469 11.5384 20.6322 11.2112 20.6361C11.1828 20.6361 11.1548 20.6361 11.1264 20.6361C9.12776 20.6365 7.12951 20.6374 5.13084 20.6378C5.04863 20.6378 4.96598 20.6378 4.87444 20.6378V20.6374ZM18.3392 12.7039C18.3816 12.6101 18.4159 12.5424 18.4439 12.472C18.6164 12.0372 18.7867 11.6016 18.9596 11.1672C19.1368 10.7222 19.3932 10.6378 19.7789 10.9127C20.6371 11.5244 21.4872 12.1468 22.3484 12.7538C22.4603 12.8327 22.6154 12.8804 22.7527 12.8864C23.1545 12.9038 23.5575 12.8847 23.9597 12.8945C24.5005 12.9077 25.0599 12.7905 25.5549 13.1519L25.585 13.1038C25.2273 11.4958 24.87 9.88793 24.5077 8.25785C20.4243 9.18074 16.3689 10.0968 12.3203 11.0116C12.3148 11.0602 12.3067 11.0824 12.311 11.1015C12.4322 11.6557 12.5576 12.2086 12.6742 12.7636C12.7038 12.9051 12.7992 12.8919 12.8975 12.8919C13.5824 12.8919 14.2673 12.8919 14.9521 12.8911C15.0127 12.8911 15.0733 12.88 15.1505 12.8727C15.1505 12.4823 15.1509 12.1071 15.1505 11.732C15.1496 11.2252 15.4594 11.0453 15.9002 11.2985C16.7024 11.7597 17.5039 12.2218 18.3396 12.7035L18.3392 12.7039ZM9.58505 6.22366C7.81947 7.991 6.04457 9.7673 4.215 11.5982C4.28535 11.6442 4.37393 11.6834 4.43877 11.7474C4.7668 12.07 5.0927 12.3957 5.41056 12.7286C5.52117 12.8442 5.63433 12.8966 5.79791 12.8962C7.71903 12.8906 9.64014 12.8928 11.5613 12.8923C11.6367 12.8923 11.7126 12.8923 11.8126 12.8923C11.796 12.7943 11.7876 12.7261 11.7727 12.6596C11.6418 12.0709 11.5091 11.4826 11.3773 10.8944C11.2993 10.5461 11.4163 10.3449 11.7558 10.2614C12.0503 10.1885 12.3474 10.1266 12.6432 10.058C12.8433 10.0116 13.0429 9.96125 13.262 9.90797C12.0071 8.65088 10.7836 7.42448 9.58505 6.22366ZM25.3451 14.0062C25.7677 17.8406 26.1843 21.6178 26.6004 25.395C26.7255 24.73 26.8098 24.0629 26.8933 23.3962C27.0679 22.0027 27.2412 20.6088 27.4175 19.2153C27.576 17.9625 27.7367 16.7101 27.8994 15.4581C27.9147 15.3421 27.8807 15.2756 27.7731 15.2249C27.5307 15.1103 27.2942 14.9824 27.0548 14.8622C26.5013 14.5842 25.9473 14.3076 25.3451 14.0062ZM21.035 12.8757C20.5349 12.5155 20.0823 12.1894 19.6102 11.8492C19.4707 12.2052 19.3428 12.5321 19.2084 12.8757H21.0346H21.035ZM16.8389 12.8795C16.844 12.8659 16.8487 12.8523 16.8537 12.8386C16.58 12.683 16.3062 12.5279 16.0142 12.362V12.8795H16.8389Z" fill="#62A2B6"/>
<path d="M12.5977 20.1987C12.6045 18.9979 13.55 18.0597 14.7455 18.0669C15.9038 18.0742 16.8582 19.0427 16.8506 20.2039C16.8425 21.4043 15.8949 22.354 14.7095 22.3493C13.5398 22.3446 12.5909 21.3787 12.5977 20.1987ZM14.7383 18.9255C14.0115 18.9229 13.4517 19.4852 13.4504 20.2179C13.4495 20.9162 14.0217 21.4908 14.7167 21.4904C15.4236 21.4899 15.9928 20.9192 15.9992 20.2051C16.0055 19.512 15.4296 18.9276 14.7383 18.925V18.9255Z" fill="#62A2B6"/>
<path d="M22.8097 12.0289C22.1003 12.0216 21.5472 11.4496 21.5523 10.7287C21.5574 10.0292 22.1503 9.44903 22.8491 9.46012C23.5535 9.47077 24.1091 10.0518 24.1006 10.7688C24.0922 11.4888 23.531 12.0365 22.8097 12.0289ZM22.8377 11.1699C23.0682 11.1661 23.2479 10.9806 23.2479 10.7466C23.2479 10.5215 23.0547 10.3246 22.8318 10.3229C22.602 10.3212 22.3978 10.5331 22.4075 10.762C22.4173 10.9883 22.6126 11.1738 22.8377 11.1699Z" fill="#62A2B6"/>
<path d="M6.23599 12.1022C6.09698 11.9854 5.95543 11.9108 5.88126 11.7932C5.77701 11.6278 5.82998 11.4457 5.96263 11.3046C6.15165 11.1034 6.34872 10.9099 6.54325 10.7138C7.46079 9.78923 8.37833 8.86464 9.29587 7.94004C9.43869 7.79639 9.59931 7.70346 9.80825 7.76996C10.1214 7.87013 10.1918 8.24483 9.93666 8.51168C9.57473 8.89022 9.20093 9.25767 8.8318 9.62938C8.1037 10.363 7.37772 11.0988 6.64454 11.8273C6.54113 11.93 6.39958 11.9944 6.23599 12.1022Z" fill="#62A2B6"/>
<path d="M8.79385 12.1014C8.65908 11.9897 8.5027 11.9202 8.45777 11.806C8.40861 11.6811 8.42684 11.4995 8.48235 11.372C8.53787 11.2437 8.67307 11.1486 8.77732 11.0434C9.3698 10.4444 9.96313 9.8468 10.5565 9.24916C10.6014 9.20397 10.6484 9.16049 10.6997 9.12298C10.8764 8.9951 11.0905 9.00831 11.2409 9.15324C11.3892 9.29562 11.4155 9.51771 11.2985 9.6976C11.2566 9.76197 11.2019 9.81952 11.1477 9.87451C10.5005 10.5284 9.85506 11.1845 9.20113 11.832C9.09772 11.9343 8.9549 11.9965 8.79343 12.1014H8.79385Z" fill="#62A2B6"/>
</svg>
